<svg width="46" height="46" viewBox="0 0 46 46" fill="none" xmlns="http://www.w3.org/2000/svg">
<path fill-rule="evenodd" clip-rule="evenodd" d="M25.3 36.8C26.52 36.8 27.69 37.2846 28.5527 38.1473C29.4154 39.01 29.9 40.18 29.9 41.4C29.9 42.62 29.4154 43.79 28.5527 44.6527C27.69 45.5154 26.52 46 25.3 46C24.08 46 22.91 45.5154 22.0473 44.6527C21.1846 43.79 20.7 42.62 20.7 41.4C20.7 40.18 21.1846 39.01 22.0473 38.1473C22.91 37.2846 24.08 36.8 25.3 36.8ZM10.9043 29.9C12.4293 29.9 13.8918 30.5058 14.9702 31.5841C16.0485 32.6625 16.6543 34.125 16.6543 35.65C16.6543 37.175 16.0485 38.6375 14.9702 39.7159C13.8918 40.7942 12.4293 41.4 10.9043 41.4C9.37931 41.4 7.91677 40.7942 6.83844 39.7159C5.7601 38.6375 5.1543 37.175 5.1543 35.65C5.1543 34.125 5.7601 32.6625 6.83844 31.5841C7.91677 30.5058 9.37931 29.9 10.9043 29.9ZM37.5337 31.05C38.7537 31.05 39.9237 31.5346 40.7864 32.3973C41.6491 33.26 42.1337 34.43 42.1337 35.65C42.1337 36.87 41.6491 38.04 40.7864 38.9027C39.9237 39.7654 38.7537 40.25 37.5337 40.25C36.3137 40.25 35.1437 39.7654 34.281 38.9027C33.4183 38.04 32.9337 36.87 32.9337 35.65C32.9337 34.43 33.4183 33.26 34.281 32.3973C35.1437 31.5346 36.3137 31.05 37.5337 31.05ZM42.55 21.4337C43.465 21.4337 44.3425 21.7972 44.9895 22.4442C45.6365 23.0912 46 23.9687 46 24.8837C46 25.7987 45.6365 26.6762 44.9895 27.3232C44.3425 27.9702 43.465 28.3337 42.55 28.3337C41.635 28.3337 40.7575 27.9702 40.1105 27.3232C39.4635 26.6762 39.1 25.7987 39.1 24.8837C39.1 23.9687 39.4635 23.0912 40.1105 22.4442C40.7575 21.7972 41.635 21.4337 42.55 21.4337ZM5.75 13.8C7.27499 13.8 8.73753 14.4058 9.81586 15.4841C10.8942 16.5625 11.5 18.025 11.5 19.55C11.5 21.075 10.8942 22.5375 9.81586 23.6159C8.73753 24.6942 7.27499 25.3 5.75 25.3C4.22501 25.3 2.76247 24.6942 1.68414 23.6159C0.605802 22.5375 0 21.075 0 19.55C0 18.025 0.605802 16.5625 1.68414 15.4841C2.76247 14.4058 4.22501 13.8 5.75 13.8ZM40.9078 11.9761C41.5178 11.9761 42.1028 12.2184 42.5341 12.6498C42.9655 13.0811 43.2078 13.6661 43.2078 14.2761C43.2078 14.8861 42.9655 15.4711 42.5341 15.9024C42.1028 16.3338 41.5178 16.5761 40.9078 16.5761C40.2978 16.5761 39.7128 16.3338 39.2815 15.9024C38.8501 15.4711 38.6078 14.8861 38.6078 14.2761C38.6078 13.6661 38.8501 13.0811 39.2815 12.6498C39.7128 12.2184 40.2978 11.9761 40.9078 11.9761ZM18.4 0C20.23 0 21.985 0.726962 23.279 2.02096C24.573 3.31496 25.3 5.07001 25.3 6.9C25.3 8.72999 24.573 10.485 23.279 11.779C21.985 13.073 20.23 13.8 18.4 13.8C16.57 13.8 14.815 13.073 13.521 11.779C12.227 10.485 11.5 8.72999 11.5 6.9C11.5 5.07001 12.227 3.31496 13.521 2.02096C14.815 0.726962 16.57 0 18.4 0V0ZM35.65 6.9C35.955 6.9 36.2475 7.02116 36.4632 7.23683C36.6788 7.45249 36.8 7.745 36.8 8.05C36.8 8.355 36.6788 8.64751 36.4632 8.86317C36.2475 9.07884 35.955 9.2 35.65 9.2C35.345 9.2 35.0525 9.07884 34.8368 8.86317C34.6212 8.64751 34.5 8.355 34.5 8.05C34.5 7.745 34.6212 7.45249 34.8368 7.23683C35.0525 7.02116 35.345 6.9 35.65 6.9Z" fill="white"/>
</svg>
